<?xml version="1.0" standalone="no"?>
<!DOCTYPE svg PUBLIC "-//W3C//DTD SVG 20010904//EN"
 "http://www.w3.org/TR/2001/REC-SVG-20010904/DTD/svg10.dtd">
<svg version="1.0" xmlns="http://www.w3.org/2000/svg"
 width="180.000000pt" height="180.000000pt" viewBox="0 0 180.000000 180.000000"
 preserveAspectRatio="xMidYMid meet">

<g transform="translate(0.000000,180.000000) scale(0.100000,-0.100000)"
fill="#000000" stroke="none">
<path d="M715 1481 c-65 -37 -130 -109 -161 -176 l-24 -53 -83 -4 c-99 -6
-162 -34 -224 -101 -56 -61 -75 -108 -76 -187 0 -79 25 -143 72 -183 28 -23
41 -27 99 -27 37 0 91 -3 119 -6 l53 -7 -6 60 c-12 113 39 219 126 263 l37 19
5 113 c4 103 7 119 38 178 18 36 46 82 62 103 36 44 29 46 -37 8z"/>
<path d="M1060 1478 c12 -18 38 -67 58 -108 34 -72 36 -80 36 -187 l1 -112 46
-30 c87 -58 123 -167 96 -293 l-14 -68 51 -2 c128 -6 191 14 253 79 58 61 78
115 77 208 -1 96 -18 138 -80 205 -62 67 -125 92 -220 89 l-75 -2 -24 51 c-30
65 -96 136 -160 173 -64 37 -72 36 -45 -3z"/>
<path d="M876 1364 c-9 -8 -16 -18 -16 -22 1 -38 63 -42 68 -5 4 30 -31 49
-52 27z"/>
<path d="M872 1128 c-16 -16 -15 -33 2 -47 28 -23 68 17 45 45 -14 17 -31 18
-47 2z"/>
<path d="M1020 711 c0 -5 9 -11 21 -14 16 -4 18 -3 8 9 -13 16 -29 19 -29 5z"/>
</g>
</svg>
